<svg aria-hidden="true" style="position:absolute;width:0;height:0" xmlns="http://www.w3.org/2000/svg" overflow="hidden"><defs><symbol id="ALARM" viewBox="0 0 33 32"><path d="M31.732 9.81c-1.675-3.835-4.673-6.833-8.405-8.468l-.104-.041A6.037 6.037 0 0126.969 0a6.063 6.063 0 016.063 6.063v.004c0 1.419-.49 2.724-1.31 3.755l.009-.012zm-.248 6.706c0 3.976-1.561 7.58-4.091 10.261l2.094 2.093a1.531 1.531 0 01-2.165 2.165l-2.25-2.248a14.766 14.766 0 01-8.545 2.697h-.012.001-.012a14.817 14.817 0 01-8.577-2.718l.047.031-2.233 2.233a1.548 1.548 0 11-2.19-2.187l.001-.001 2.076-2.077c-2.522-2.68-4.078-6.279-4.078-10.248 0-8.266 6.701-14.968 14.968-14.968S31.486 8.25 31.486 16.517zM16.516 4.645c-6.556 0-11.871 5.314-11.871 11.871 0 6.556 5.315 11.871 11.871 11.871s11.871-5.316 11.871-11.871c0-6.557-5.316-11.871-11.871-11.871zm6.194 13.42h-6.194a1.548 1.548 0 01-1.548-1.548V8.259a1.548 1.548 0 113.096 0v6.71h4.645a1.548 1.548 0 110 3.096zM1.329 10.018A6.122 6.122 0 010 6.197v-.004A6.194 6.194 0 016.194-.001c1.445 0 2.772.499 3.826 1.329-3.917 1.711-6.979 4.773-8.649 8.583l-.042.107z"/></symbol><symbol id="MAGNIFYING_GLASS" viewBox="0 0 32 32"><path d="M31.644 28.711a2.933 2.933 0 01-5.008 2.073l-8.597-8.596a11.663 11.663 0 01-5.95 1.634c-6.48 0-11.733-5.253-11.733-11.733S5.609.356 12.089.356s11.733 5.253 11.733 11.733c0 2.196-.608 4.249-1.663 6.003l.029-.053 8.597 8.597c.53.53.859 1.262.859 2.075zM12.089 3.289a8.8 8.8 0 000 17.6 8.8 8.8 0 000-17.6z"/></symbol><symbol id="SHOPPING_CART" viewBox="0 0 38 32"><path d="M37.815 7.814h.002l-5.28 11.733a1.762 1.762 0 01-1.481 1.034h-.005l-15.206 1.013.879 2.509h16.557a3.52 3.52 0 11-3.52 3.52H13.334v.002a3.52 3.52 0 11-3.52-3.52h3.179L6.222 4.745H2.19a1.76 1.76 0 010-3.52h5.278c.768 0 1.414.495 1.655 1.18h.006l1.024 2.927h26.061a1.76 1.76 0 011.598 2.492l.005-.011zM11.383 8.853l3.255 9.295 15.123-1.009 3.729-8.286z"/></symbol><symbol id="OK" viewBox="0 0 32 32"><path d="M30 25h-9.5v2.5l2 2v.5h-13v-.5l2-2V25H2a1.5 1.5 0 01-1.5-1.5v-20A1.5 1.5 0 012 2h28a1.5 1.5 0 011.5 1.5v20A1.5 1.5 0 0130 25zm-.5-21h-27v17h27zM13 11c.414 0 .79.168 1.06.439l.94.94 2.94-2.94a1.5 1.5 0 112.121 2.12l-.001.001-4 4a1.493 1.493 0 01-2.122 0l-2-2A1.5 1.5 0 0112.999 11H13z"/></symbol><symbol id="BOOK_2" viewBox="0 0 32 32"><path d="M31.065 25.89l-14.471 5.987a1.485 1.485 0 01-1.198-.004l.01.004L.936 25.89A1.503 1.503 0 010 24.5v-23A1.5 1.5 0 012.083.118l-.01-.004.003.001.013.005L16 5.875 29.928.113A1.5 1.5 0 0132 1.499v23c0 .625-.382 1.16-.925 1.386l-.01.004zM14.5 8.502L3 3.743v19.754l11.5 4.759zM29 3.743l-11.5 4.76v19.753l11.5-4.76zm-9.12 6.891l5.5-2.5a1.5 1.5 0 011.251 2.727l-.009.004-5.5 2.5a1.5 1.5 0 01-1.251-2.727l.009-.004zm0 5.5l5.5-2.5a1.499 1.499 0 012.12 1.364v.001a1.5 1.5 0 01-.871 1.362l-.009.004-5.5 2.5a1.5 1.5 0 01-1.249-2.726l.009-.004zm0 5.5l5.5-2.5a1.5 1.5 0 011.251 2.727l-.009.004-5.5 2.5a1.5 1.5 0 01-1.251-2.727l.009-.004zM6 8c.221 0 .431.048.62.134l5.5 2.5a1.5 1.5 0 01-1.25 2.727l.01.004-5.5-2.5A1.5 1.5 0 016 8zm0 5.5c.221 0 .431.048.62.134l5.5 2.5a1.5 1.5 0 11-1.249 2.726l.009.004v.001l-5.5-2.5A1.5 1.5 0 016 13.5zM6 19c.221 0 .431.048.62.134l5.5 2.5a1.5 1.5 0 01-1.25 2.727l.01.004-5.5-2.5A1.5 1.5 0 016 19z"/></symbol><symbol id="HOME" viewBox="0 0 32 32"><path d="M32 17a1.5 1.5 0 01-1.5 1.5 1.488 1.488 0 01-1.021-.407l.001.001-.003.004L16 4.622 2.554 18.068a1.5 1.5 0 11-2.093-2.15l.001-.001L14.918 1.459c.273-.283.656-.46 1.08-.46H16c.027 0 .053 0 .08.002h.012c.032.002.057.005.081.008l-.009-.001c.367.04.694.212.933.468L23 7.376V5.999a1.5 1.5 0 013 0v4.378l5.598 5.598-.004.004c.25.268.406.625.406 1.02zm-3 2.5V30a1.5 1.5 0 01-1.5 1.5h-3v-12h-6v12h-14A1.5 1.5 0 013 30V19.5l13-13zm-15.5 0h-6v6h6z"/></symbol><symbol id="IMAGE" viewBox="0 0 32 32"><path d="M30.5 32h-29A1.5 1.5 0 010 30.5v-29A1.5 1.5 0 011.5 0h29A1.5 1.5 0 0132 1.5v29a1.5 1.5 0 01-1.5 1.5zM29 3H3v26h26zM12 4.5a1.5 1.5 0 010 3H7.5V12a1.5 1.5 0 01-3 0V4.5zM4.5 20a1.5 1.5 0 013 0v4.5H12a1.5 1.5 0 010 3H4.5zM20 4.5h7.5V12a1.5 1.5 0 01-3 0V7.5H20a1.5 1.5 0 010-3zm0 20h4.5V20a1.5 1.5 0 013 0v7.5H20a1.5 1.5 0 010-3z"/></symbol><symbol id="LINE_GRAPH" viewBox="0 0 32 32"><path d="M30.5 32h-29A1.5 1.5 0 010 30.5v-29A1.5 1.5 0 011.5 0h29A1.5 1.5 0 0132 1.5v29a1.5 1.5 0 01-1.5 1.5zM29 3H3v26h26zM5.215 16.238l4-2.5c.223-.14.494-.223.785-.223.314 0 .605.097.845.263l-.005-.003.006-.008 6.63 4.42 7.639-5.391a1.5 1.5 0 011.767 2.424l-.004.003-8.5 6a1.487 1.487 0 01-1.744.009l.005.003-6.657-4.438-3.135 1.96a1.5 1.5 0 01-1.635-2.513l.005-.003z"/></symbol><symbol id="facebook" viewBox="0 0 15 32"><path d="M14.88.245v5.071s-3.739-.372-4.676 1.061c-.512.783-.208 3.077-.254 4.724h4.96c-.42 1.925-.72 3.23-1.029 4.896H9.923v15.759H3.052V16.059H.13v-4.956h2.891c.148-3.626.203-7.217 2.005-9.046C7.049 0 8.98.247 14.878.247z"/></symbol><symbol id="instagram" viewBox="0 0 32 32"><path d="M27.938 31.754H4.307a3.938 3.938 0 01-3.938-3.938V4.185A3.938 3.938 0 014.307.247h23.631a3.938 3.938 0 013.938 3.938v23.631a3.938 3.938 0 01-3.938 3.938zM16.123 9.895a6.1 6.1 0 00-5.52 3.507l-.016.037h-.006l-.027.066c-.042.09-.095.22-.144.353l-.014.042a4.076 4.076 0 00-.178.568l-.009.042c-.017.066-.037.13-.052.197a5.358 5.358 0 00-.072.422l-.003.031c-.009.062-.021.122-.028.185a6.105 6.105 0 1012.135-.028l.003.028c-.006-.063-.018-.123-.027-.185a6.094 6.094 0 00-.082-.493l.007.04c-.015-.066-.034-.13-.052-.197a5.727 5.727 0 00-.129-.462l.012.044c-.021-.064-.047-.127-.07-.192a5.766 5.766 0 00-.173-.432l.015.038-.027-.069h-.006c-.99-2.108-3.096-3.542-5.536-3.543zm12.209-4.529c0-.87-.705-1.575-1.575-1.575h-3.151c-.87 0-1.575.705-1.575 1.575v3.151c0 .87.705 1.575 1.575 1.575h3.151c.87 0 1.575-.705 1.575-1.575zm0 8.074h-2.905c.22.768.346 1.649.346 2.56a9.649 9.649 0 01-9.649 9.649h-.002A9.649 9.649 0 016.473 16c0-.911.126-1.793.362-2.628l-.016.068H3.914v13.194c0 .87.705 1.575 1.575 1.575h21.268c.87 0 1.575-.705 1.575-1.575z"/></symbol><symbol id="pinterest" viewBox="0 0 25 32"><path d="M9.908 20.743c-.256 1.025-.516 2.1-.784 3.151-.265 1.036-.498 2.087-.884 3.04-.639 1.577-1.45 3.102-2.514 4.334-.708.821-.558.492-.77.449-.162-.034-.176-.193-.209-.425-.172-1.253-.054-2.702.01-4.111.074-1.604.411-2.938.725-4.271.596-2.54 1.164-5.03 1.766-7.586.039-.17.148-.45.111-.548-.273-.71-.45-1.348-.528-2.092a6.67 6.67 0 01.182-2.439l-.011.046c.34-1.302 1.122-2.455 2.33-2.878.768-.266 1.618-.145 2.135.162.532.319.897.821 1.067 1.534.182.757.048 1.662-.098 2.327-.329 1.5-.761 2.626-1.153 4.074-.194.718-.415 1.455-.234 2.23a2.605 2.605 0 001.044 1.569c.524.382 1.145.591 2 .56 1.511-.053 2.561-1.019 3.263-1.93 1.124-1.458 1.803-3.426 2.062-5.767.084-.756.144-1.623.086-2.479-.108-1.58-.603-2.852-1.387-3.836-.746-.939-1.804-1.686-3.092-2.105-1.276-.418-3.042-.556-4.612-.288-2.853.489-4.864 2.11-6.049 4.348a8.6 8.6 0 00-1.031 4.11v.091-.005c0 1.292.32 2.295.834 3.077.164.247.404.452.564.735.228.401-.034.998-.148 1.433-.135.523-.148 1.246-.759 1.258-.254.005-.571-.18-.785-.299C1.433 17.325.458 15.71.058 13.616c-.116-.599-.182-1.288-.182-1.993s.066-1.393.193-2.061l-.011.069a11.36 11.36 0 011.153-3.177 11.461 11.461 0 014.204-4.356l.053-.029C6.842 1.257 8.391.687 10.277.412c.568-.08 1.25-.138 1.942-.162l.034-.001a11.833 11.833 0 015.4 1.027l-.075-.03c1.44.644 2.66 1.536 3.66 2.633l.008.009c1.031 1.126 1.782 2.437 2.257 4.073.249.852.49 1.762.49 2.815 0 1.056-.223 1.985-.379 2.914-.583 3.481-2.239 6.327-4.724 7.948a8.055 8.055 0 01-2.101.981l-.058.015c-.821.239-1.758.418-2.761.348a5.649 5.649 0 01-2.469-.725l.028.015c-.665-.375-1.223-.836-1.62-1.531z"/></symbol><symbol id="twitter" viewBox="0 0 38 32"><path d="M25.473.874c2.959-.052 4.534 1.025 6.036 2.396 1.279-.109 2.938-.822 3.916-1.319l.95-.519c-.559 1.508-1.315 2.691-2.479 3.587-.259.198-.515.467-.839.593v.019c1.658-.016 3.025-.765 4.324-1.171v.019c-.682 1.084-1.606 2.185-2.591 2.973l-1.193.947c.022 1.756-.026 3.431-.355 4.906-1.907 8.575-6.963 14.396-14.964 16.89-2.874.895-7.517 1.263-10.81.445-1.632-.404-3.107-.863-4.492-1.466-.85-.37-1.56-.744-2.239-1.161l.078.044-.671-.406c.742.022 1.612.227 2.441.092.752-.121 1.488-.089 2.182-.24 1.728-.38 3.263-.881 4.583-1.655.641-.374 1.615-.815 2.07-1.356-.858.015-1.636-.185-2.273-.409-2.473-.873-3.91-2.477-4.847-4.887.749.083 2.906.276 3.411-.148-.943-.052-1.849-.598-2.497-1.004-1.988-1.244-3.609-3.329-3.597-6.54l.783.371c.5.211 1.008.323 1.603.447.252.052.756.199 1.044.092h-.038c-.384-.447-1.011-.745-1.396-1.226C2.336 9.603 1.14 7.165 1.897 4.259a8.834 8.834 0 01.843-2.032l-.023.043.038.017c.148.311.48.54.689.8.652.807 1.455 1.533 2.273 2.173 2.79 2.182 5.302 3.523 9.338 4.515 1.023.253 2.205.445 3.428.447-.343-.999-.233-2.618.036-3.585.681-2.435 2.157-4.189 4.324-5.127a8.747 8.747 0 011.636-.512l.06-.011.931-.111z"/></symbol></defs></svg>